# xmcd
#
# Track frame offsets: 
#        150
#        11904
#        24731
#        37720
#        49385
#        60264
#        74086
#        90411
#        104559
#        116347
#        128288
#        144403
#        158364
#        172848
#        185122
#        195929
#
# Disc length: 2799 seconds
#
# Revision: 0
# Processed by: cddbd v1.5.2PL0 Copyright (c) Steve Scherf et al.
# Submitted via: ExactAudioCopy v0.99pb5
#
DISCID=c70aed10
DTITLE=Hannes Jaric - Burning Piano
DYEAR=2010
DGENRE=Boogie - Piano - Blues
TTITLE0=Always the Same
TTITLE1=Like a Locomotive
TTITLE2=For My Baby
TTITLE3=I'm the Boss
TTITLE4=Drunken
TTITLE5=Walk Alone
TTITLE6=Sue's Blues Feeling
TTITLE7=Time to Relax
TTITLE8=My Funky Way
TTITLE9=So Lonely
TTITLE10=It's Christmas Day
TTITLE11=You're an Angel
TTITLE12=My Happiness
TTITLE13=Leave Me Alone
TTITLE14=Burning Piano
TTITLE15=You're an Angel (vocal)
EXTD=
EXTT0=
EXTT1=
EXTT2=
EXTT3=
EXTT4=
EXTT5=
EXTT6=
EXTT7=
EXTT8=
EXTT9=
EXTT10=
EXTT11=
EXTT12=
EXTT13=
EXTT14=
EXTT15=
PLAYORDER=
